<svg width="50" height="50" viewBox="0 0 50 50" xmlns="http://www.w3.org/2000/svg"><title>btn_logo</title><g fill-rule="evenodd"><path d="M16.751 21.37a3.973 3.973 0 0 0-2.994-.557 4.066 4.066 0 0 0-2.602 1.78 4.08 4.08 0 0 0 1.198 5.638c1.88 1.22 4.358.69 5.642-1.209l2.213-3.408-3.427-2.225-.03-.02m20.767.531a4.086 4.086 0 0 0-3.121-.569 3.93 3.93 0 0 0-2.506 1.75l-.01.016-2.219 3.417 3.405 2.212c1.952 1.206 4.431.684 5.649-1.19a4.08 4.08 0 0 0-1.198-5.637"/><path d="M24.935.13C11.163.13 0 11.293 0 25.063 0 38.836 11.163 50 24.935 50 38.707 50 49.87 38.836 49.87 25.064 49.87 11.294 38.707.13 24.935.13m16.06 28.887a6.697 6.697 0 0 1-4.278 2.926 6.934 6.934 0 0 1-5.095-.915l-.022-.014-3.417-2.22-6.72 10.348-2.279-1.48 6.72-10.348-3.418-2.219-2.23 3.436a6.9 6.9 0 0 1-4.283 2.914 6.692 6.692 0 0 1-5.1-.936 6.798 6.798 0 0 1 2.331-12.354 6.653 6.653 0 0 1 5.072.967l3.412 2.215 6.72-10.346 2.278 1.48-6.72 10.346 3.418 2.218 2.213-3.41a6.632 6.632 0 0 1 4.218-2.946 6.782 6.782 0 0 1 5.183.943 6.8 6.8 0 0 1 1.996 9.395"/></g></svg>