<?xml version="1.0" standalone="no"?>
<!DOCTYPE svg PUBLIC "-//W3C//DTD SVG 20010904//EN"
 "http://www.w3.org/TR/2001/REC-SVG-20010904/DTD/svg10.dtd">
<svg version="1.0" xmlns="http://www.w3.org/2000/svg"
 width="512.000000pt" height="512.000000pt" viewBox="0 0 512.000000 512.000000"
 preserveAspectRatio="xMidYMid meet">
<metadata>
Created by potrace 1.11, written by Peter Selinger 2001-2013
</metadata>
<g transform="translate(0.000000,512.000000) scale(0.100000,-0.100000)"
fill="#000000" stroke="none">
<path d="M763 4574 c-99 -29 -188 -117 -217 -215 -11 -36 -14 -194 -15 -760
-1 -392 -2 -721 -2 -729 1 -8 0 -44 0 -80 -1 -36 -1 -72 0 -80 0 -8 1 -80 0
-160 0 -80 0 -149 0 -155 0 -5 0 -327 0 -715 0 -835 0 -726 2 -804 1 -35 -2
-70 -6 -77 -5 -7 -4 -10 2 -6 6 4 13 -5 15 -21 8 -45 12 -55 30 -76 10 -11 18
-25 18 -30 0 -6 9 -17 20 -24 11 -7 20 -19 20 -27 0 -8 3 -14 8 -13 8 3 64
-32 74 -47 4 -5 8 -7 8 -3 0 3 21 0 47 -8 25 -8 66 -14 90 -14 32 0 42 -3 38
-12 -4 -7 1 -4 9 6 10 13 20 16 26 10 5 -5 51 -7 105 -4 53 3 100 1 104 -3 5
-5 12 -4 15 2 4 5 13 8 21 5 8 -4 12 -11 8 -18 -5 -8 -3 -8 8 1 15 12 169 20
187 9 6 -3 13 -2 17 4 10 16 27 0 21 -19 -5 -14 -5 -14 7 1 10 13 32 17 99 19
47 1 90 -1 96 -5 6 -3 13 -2 17 3 8 14 36 1 28 -13 -3 -6 -1 -6 8 2 7 6 37 12
67 12 40 0 51 -3 46 -12 -6 -10 -5 -10 7 -1 12 9 109 13 389 12 205 0 375 3
378 6 3 2 11 0 18 -6 8 -6 14 -7 18 0 9 14 37 2 29 -13 -3 -6 -1 -6 8 2 18 17
123 17 113 0 -6 -10 -5 -10 7 -1 16 13 289 21 308 9 5 -4 12 -2 16 3 3 6 12 8
20 5 8 -4 12 -11 8 -18 -5 -8 -3 -8 8 1 15 12 169 20 187 9 6 -3 13 -2 17 4
10 16 27 0 21 -19 -5 -14 -5 -14 7 1 10 13 32 17 99 19 47 1 90 -1 96 -5 6 -3
13 -2 17 3 8 14 36 1 28 -13 -3 -6 -1 -6 8 1 18 18 123 18 113 1 -6 -10 -5
-10 7 -1 11 9 93 13 300 14 340 2 349 3 349 9 0 6 65 32 75 30 4 -1 15 10 26
25 12 14 24 23 29 20 5 -3 12 0 16 6 5 8 3 9 -7 4 -8 -5 -5 1 5 14 11 12 26
19 34 16 12 -4 13 -3 2 10 -7 8 -8 15 -3 15 5 0 16 18 23 40 7 21 16 37 21 35
4 -3 5 4 2 15 -3 11 1 28 8 37 8 9 10 14 4 11 -9 -5 -11 92 -5 287 1 56 2 170
1 185 -1 18 -1 150 1 159 0 3 -1 11 -2 16 -1 6 -1 91 0 190 0 99 1 186 1 193
0 6 -1 23 -1 37 0 14 0 33 0 43 0 62 1 155 2 161 0 3 -1 11 -2 16 -1 6 -1 73
0 150 1 77 1 147 1 155 0 8 0 44 0 80 1 36 1 72 0 80 -1 18 -1 150 1 159 0 3
-1 11 -2 16 -1 6 -1 91 0 190 0 99 1 186 1 193 0 6 -1 23 -1 37 0 14 0 33 0
43 0 62 1 155 2 161 0 3 -1 11 -2 16 -1 6 -1 73 0 150 1 77 1 147 1 155 0 8 0
44 0 80 1 36 1 72 0 80 -1 18 -1 150 1 159 0 3 0 8 -2 11 -1 3 -2 80 -3 172 0
92 -4 165 -9 162 -4 -3 -8 4 -8 16 0 21 -54 109 -74 122 -6 3 -22 16 -36 28
-34 29 -66 45 -120 58 -70 16 -3522 12 -3577 -4z"/>
<path d="M4625 3160 c-3 -6 1 -7 9 -4 18 7 21 14 7 14 -6 0 -13 -4 -16 -10z"/>
<path d="M4625 1880 c-3 -6 1 -7 9 -4 18 7 21 14 7 14 -6 0 -13 -4 -16 -10z"/>
<path d="M770 499 c0 -5 5 -7 10 -4 6 3 10 8 10 11 0 2 -4 4 -10 4 -5 0 -10
-5 -10 -11z"/>
<path d="M815 500 c3 -5 8 -10 11 -10 2 0 4 5 4 10 0 6 -5 10 -11 10 -5 0 -7
-4 -4 -10z"/>
<path d="M1015 500 c3 -5 8 -10 11 -10 2 0 4 5 4 10 0 6 -5 10 -11 10 -5 0 -7
-4 -4 -10z"/>
<path d="M1095 500 c3 -5 8 -10 11 -10 2 0 4 5 4 10 0 6 -5 10 -11 10 -5 0 -7
-4 -4 -10z"/>
<path d="M1495 500 c3 -5 8 -10 11 -10 2 0 4 5 4 10 0 6 -5 10 -11 10 -5 0 -7
-4 -4 -10z"/>
<path d="M1575 500 c3 -5 8 -10 11 -10 2 0 4 5 4 10 0 6 -5 10 -11 10 -5 0 -7
-4 -4 -10z"/>
<path d="M2935 500 c3 -5 8 -10 11 -10 2 0 4 5 4 10 0 6 -5 10 -11 10 -5 0 -7
-4 -4 -10z"/>
<path d="M3015 500 c3 -5 8 -10 11 -10 2 0 4 5 4 10 0 6 -5 10 -11 10 -5 0 -7
-4 -4 -10z"/>
<path d="M3415 500 c3 -5 8 -10 11 -10 2 0 4 5 4 10 0 6 -5 10 -11 10 -5 0 -7
-4 -4 -10z"/>
<path d="M3495 500 c3 -5 8 -10 11 -10 2 0 4 5 4 10 0 6 -5 10 -11 10 -5 0 -7
-4 -4 -10z"/>
<path d="M1616 482 c-3 -5 1 -9 9 -9 8 0 12 4 9 9 -3 4 -7 8 -9 8 -2 0 -6 -4
-9 -8z"/>
<path d="M2196 473 c-6 -14 -5 -15 5 -6 7 7 10 15 7 18 -3 3 -9 -2 -12 -12z"/>
<path d="M2516 473 c-6 -14 -5 -15 5 -6 7 7 10 15 7 18 -3 3 -9 -2 -12 -12z"/>
<path d="M2576 482 c-3 -5 1 -9 9 -9 8 0 12 4 9 9 -3 4 -7 8 -9 8 -2 0 -6 -4
-9 -8z"/>
<path d="M3536 482 c-3 -5 1 -9 9 -9 8 0 12 4 9 9 -3 4 -7 8 -9 8 -2 0 -6 -4
-9 -8z"/>
<path d="M4116 473 c-6 -14 -5 -15 5 -6 7 7 10 15 7 18 -3 3 -9 -2 -12 -12z"/>
</g>
</svg>
